<svg width="493" height="476" viewBox="0 0 493 476" fill="none" xmlns="http://www.w3.org/2000/svg">
<path d="M120.552 147V149H123.792L122.34 146.104L120.552 147ZM72.9819 147L71.1921 147.892L71.7443 149H72.9819V147ZM0 0.629595V-1.37041H-3.23205L-1.78985 1.52203L0 0.629595ZM47.1638 0.629595L48.9517 -0.266818L48.3983 -1.37041H47.1638V0.629595ZM120.552 124.231L118.774 125.147L122.552 124.231H120.552ZM81.9268 49.2164H79.9268V49.7011L80.1486 50.132L81.9268 49.2164ZM81.9268 0.629595V-1.37041H79.9268V0.629595H81.9268ZM120.552 0.629595H122.552V-1.37041H120.552V0.629595ZM8.33498 38.6452L10.1276 37.7583L6.33498 38.6452H8.33498ZM46.9605 116.709H48.9605V116.242L48.7531 115.823L46.9605 116.709ZM46.9605 147V149H48.9605V147H46.9605ZM8.33498 147H6.33498V149H8.33498V147ZM120.552 145H72.9819V149H120.552V145ZM74.7718 146.108L1.78985 -0.262843L-1.78985 1.52203L71.1921 147.892L74.7718 146.108ZM0 2.62959H47.1638V-1.37041H0V2.62959ZM45.3759 1.52601L118.764 147.896L122.34 146.104L48.9517 -0.266818L45.3759 1.52601ZM122.33 123.316L83.7049 48.3009L80.1486 50.132L118.774 125.147L122.33 123.316ZM83.9268 49.2164V0.629595H79.9268V49.2164H83.9268ZM81.9268 2.62959H120.552V-1.37041H81.9268V2.62959ZM118.552 0.629595V124.231H122.552V0.629595H118.552ZM6.54241 39.5322L45.1679 117.596L48.7531 115.823L10.1276 37.7583L6.54241 39.5322ZM44.9605 116.709V147H48.9605V116.709H44.9605ZM46.9605 145H8.33498V149H46.9605V145ZM10.335 147V38.6452H6.33498V147H10.335ZM165.418 146.39L164.895 148.321L164.905 148.323L165.418 146.39ZM148.545 137.039L147.173 138.494L148.545 137.039ZM137.567 118.539L135.666 119.162L137.567 118.539ZM143.869 44.9473L145.526 46.067L145.533 46.0567L143.869 44.9473ZM176.599 28.4806H178.599V26.3696L176.491 26.4836L176.599 28.4806ZM176.599 58.3646L178.278 59.4511L178.599 58.9552V58.3646H176.599ZM174.16 108.171L176.083 107.622L174.16 108.171ZM181.885 117.929L181.042 119.743L181.054 119.749L181.066 119.754L181.885 117.929ZM208.109 119.759L207.793 117.784L207.781 117.786L208.109 119.759ZM217.867 117.929H219.867V115.448L217.442 115.975L217.867 117.929ZM217.867 145.577L218.26 147.538L219.867 147.217V145.577H217.867ZM202.824 148.016L202.569 146.033L202.563 146.034L202.824 148.016ZM182.291 99.8362H180.291V101.836H182.291V99.8362ZM182.291 77.2708V75.2708H180.291V77.2708H182.291ZM189 77.2708V79.2708H191V77.2708H189ZM188.593 67.3094L186.595 67.3863L186.596 67.4246L186.599 67.4628L188.593 67.3094ZM186.56 58.5679H184.56V59.0646L184.793 59.5037L186.56 58.5679ZM186.56 28.6839L186.728 26.691L184.56 26.5084V28.6839H186.56ZM214.411 42.7111L212.764 43.8453L212.768 43.8517L212.773 43.858L214.411 42.7111ZM222.543 89.0617L224.538 89.1993L224.539 89.1947L222.543 89.0617ZM221.12 99.8362V101.836H222.746L223.078 100.244L221.12 99.8362ZM187.373 147.033C179.523 147.033 172.38 146.168 165.931 144.457L164.905 148.323C171.738 150.136 179.232 151.033 187.373 151.033V147.033ZM165.941 144.46C159.742 142.781 154.412 139.822 149.917 135.583L147.173 138.494C152.164 143.2 158.083 146.476 164.895 148.321L165.941 144.46ZM149.917 135.583C145.473 131.394 141.966 125.543 139.468 117.916L135.666 119.162C138.318 127.256 142.13 133.739 147.173 138.494L149.917 135.583ZM139.468 117.916C136.982 110.328 135.704 100.528 135.704 88.4518H131.704C131.704 100.77 133.002 111.029 135.666 119.162L139.468 117.916ZM135.704 88.4518C135.704 69.6679 139.067 55.6266 145.526 46.067L142.212 43.8276C135.118 54.3262 131.704 69.2879 131.704 88.4518H135.704ZM145.533 46.0567C151.878 36.5396 162.129 31.2657 176.707 30.4777L176.491 26.4836C160.982 27.3219 149.413 33.0257 142.205 43.8379L145.533 46.0567ZM174.599 28.4806V58.3646H178.599V28.4806H174.599ZM174.92 57.2781C173.196 59.9415 172.026 63.8877 171.267 68.8899C170.501 73.9387 170.127 80.2652 170.127 87.842H174.127C174.127 80.3752 174.497 74.2669 175.222 69.4899C175.954 64.6663 177.02 61.3956 178.278 59.4511L174.92 57.2781ZM170.127 87.842C170.127 96.7159 170.805 103.711 172.236 108.721L176.083 107.622C174.803 103.145 174.127 96.5867 174.127 87.842H170.127ZM172.236 108.721C173.72 113.912 176.625 117.692 181.042 119.743L182.727 116.115C179.555 114.642 177.31 111.917 176.083 107.622L172.236 108.721ZM181.066 119.754C185.371 121.684 191.254 122.572 198.555 122.572V118.572C191.49 118.572 186.259 117.699 182.703 116.104L181.066 119.754ZM198.555 122.572C201.788 122.572 205.083 122.291 208.438 121.732L207.781 117.786C204.63 118.311 201.555 118.572 198.555 118.572V122.572ZM208.425 121.734C211.847 121.186 215.136 120.57 218.292 119.884L217.442 115.975C214.364 116.644 211.148 117.247 207.793 117.784L208.425 121.734ZM215.867 117.929V145.577H219.867V117.929H215.867ZM217.475 143.616C212.782 144.554 207.813 145.36 202.569 146.033L203.078 150C208.405 149.317 213.466 148.497 218.26 147.538L217.475 143.616ZM202.563 146.034C197.498 146.7 192.436 147.033 187.373 147.033V151.033C192.612 151.033 197.849 150.688 203.085 149.999L202.563 146.034ZM184.291 99.8362V77.2708H180.291V99.8362H184.291ZM182.291 79.2708H189V75.2708H182.291V79.2708ZM191 77.2708C191 74.0962 190.862 70.7242 190.587 67.1561L186.599 67.4628C186.867 70.9421 187 74.211 187 77.2708H191ZM190.592 67.2326C190.449 63.5092 189.729 60.2778 188.328 57.6321L184.793 59.5037C185.832 61.4659 186.467 64.0622 186.595 67.3863L190.592 67.2326ZM188.56 58.5679V28.6839H184.56V58.5679H188.56ZM186.393 30.6769C198.856 31.7264 207.505 36.2065 212.764 43.8453L216.059 41.5769C209.934 32.6812 200.015 27.8099 186.728 26.691L186.393 30.6769ZM212.773 43.858C218.139 51.5235 220.95 62.5789 220.95 77.2708H224.95C224.95 62.1465 222.068 50.1621 216.05 41.5642L212.773 43.858ZM220.95 77.2708C220.95 81.0181 220.816 84.9039 220.547 88.9287L224.539 89.1947C224.812 85.0878 224.95 81.113 224.95 77.2708H220.95ZM220.548 88.9241C220.282 92.7797 219.818 96.2793 219.162 99.4283L223.078 100.244C223.777 96.8877 224.262 93.2043 224.538 89.1993L220.548 88.9241ZM221.12 97.8362H182.291V101.836H221.12V97.8362ZM284.341 147V149H286.768L286.304 146.618L284.341 147ZM251.204 147L249.256 147.454L249.617 149H251.204V147ZM223.963 30.107V28.107H221.443L222.015 30.5609L223.963 30.107ZM261.572 30.107L263.535 29.7246L263.22 28.107H261.572V30.107ZM278.852 71.7819L276.874 71.4828L276.821 71.8326L276.892 72.1792L278.852 71.7819ZM285.154 30.107V28.107H283.434L283.176 29.8079L285.154 30.107ZM321.746 30.107L323.693 30.5673L324.275 28.107H321.746V30.107ZM294.099 147L292.139 147.397L296.045 147.46L294.099 147ZM284.341 145H251.204V149H284.341V145ZM253.152 146.546L225.911 29.653L222.015 30.5609L249.256 147.454L253.152 146.546ZM223.963 32.107H261.572V28.107H223.963V32.107ZM259.609 30.4893L282.378 147.382L286.304 146.618L263.535 29.7246L259.609 30.4893ZM280.829 72.0809L287.131 30.406L283.176 29.8079L276.874 71.4828L280.829 72.0809ZM285.154 32.107H321.746V28.107H285.154V32.107ZM319.8 29.6466L292.152 146.54L296.045 147.46L323.693 30.5673L319.8 29.6466ZM296.059 146.603L280.812 71.3846L276.892 72.1792L292.139 147.397L296.059 146.603ZM355.607 146.39L355.085 148.321L355.094 148.323L355.607 146.39ZM338.734 137.039L337.362 138.494L338.734 137.039ZM327.756 118.539L325.856 119.162L327.756 118.539ZM334.058 44.9473L335.716 46.067L335.722 46.0567L334.058 44.9473ZM366.788 28.4806H368.788V26.3696L366.68 26.4836L366.788 28.4806ZM366.788 58.3646L368.468 59.4511L368.788 58.9552V58.3646H366.788ZM364.349 108.171L366.272 107.622L364.349 108.171ZM372.074 117.929L371.232 119.743L371.244 119.749L371.256 119.754L372.074 117.929ZM398.299 119.759L397.983 117.784L397.97 117.786L398.299 119.759ZM408.057 117.929H410.057V115.448L407.632 115.975L408.057 117.929ZM408.057 145.577L408.449 147.538L410.057 147.217V145.577H408.057ZM393.013 148.016L392.759 146.033L392.752 146.034L393.013 148.016ZM372.481 99.8362H370.481V101.836H372.481V99.8362ZM372.481 77.2708V75.2708H370.481V77.2708H372.481ZM379.189 77.2708V79.2708H381.189V77.2708H379.189ZM378.783 67.3094L376.784 67.3863L376.786 67.4246L376.789 67.4628L378.783 67.3094ZM376.75 58.5679H374.75V59.0646L374.982 59.5037L376.75 58.5679ZM376.75 28.6839L376.918 26.691L374.75 26.5084V28.6839H376.75ZM404.601 42.7111L402.953 43.8453L402.958 43.8517L402.962 43.858L404.601 42.7111ZM412.732 89.0617L414.728 89.1993L414.728 89.1947L412.732 89.0617ZM411.309 99.8362V101.836H412.936L413.267 100.244L411.309 99.8362ZM377.563 147.033C369.712 147.033 362.569 146.168 356.12 144.457L355.094 148.323C361.927 150.136 369.421 151.033 377.563 151.033V147.033ZM356.13 144.46C349.932 142.781 344.602 139.822 340.106 135.583L337.362 138.494C342.353 143.2 348.272 146.476 355.085 148.321L356.13 144.46ZM340.106 135.583C335.662 131.394 332.155 125.543 329.657 117.916L325.856 119.162C328.507 127.256 332.319 133.739 337.362 138.494L340.106 135.583ZM329.657 117.916C327.171 110.328 325.894 100.528 325.894 88.4518H321.894C321.894 100.77 323.192 111.029 325.856 119.162L329.657 117.916ZM325.894 88.4518C325.894 69.6679 329.256 55.6266 335.716 46.067L332.401 43.8276C325.308 54.3262 321.894 69.2879 321.894 88.4518H325.894ZM335.722 46.0567C342.067 36.5396 352.319 31.2657 366.896 30.4777L366.68 26.4836C351.171 27.3219 339.602 33.0257 332.394 43.8379L335.722 46.0567ZM364.788 28.4806V58.3646H368.788V28.4806H364.788ZM365.109 57.2781C363.386 59.9415 362.216 63.8877 361.457 68.8899C360.691 73.9387 360.316 80.2652 360.316 87.842H364.316C364.316 80.3752 364.687 74.2669 365.411 69.4899C366.143 64.6663 367.209 61.3956 368.468 59.4511L365.109 57.2781ZM360.316 87.842C360.316 96.7159 360.994 103.711 362.426 108.721L366.272 107.622C364.993 103.145 364.316 96.5867 364.316 87.842H360.316ZM362.426 108.721C363.909 113.912 366.814 117.692 371.232 119.743L372.916 116.115C369.744 114.642 367.499 111.917 366.272 107.622L362.426 108.721ZM371.256 119.754C375.56 121.684 381.443 122.572 388.744 122.572V118.572C381.679 118.572 376.449 117.699 372.892 116.104L371.256 119.754ZM388.744 122.572C391.977 122.572 395.272 122.291 398.628 121.732L397.97 117.786C394.82 118.311 391.745 118.572 388.744 118.572V122.572ZM398.615 121.734C402.037 121.186 405.326 120.57 408.482 119.884L407.632 115.975C404.553 116.644 401.337 117.247 397.983 117.784L398.615 121.734ZM406.057 117.929V145.577H410.057V117.929H406.057ZM407.665 143.616C402.971 144.554 398.003 145.36 392.759 146.033L393.267 150C398.595 149.317 403.655 148.497 408.449 147.538L407.665 143.616ZM392.752 146.034C387.688 146.7 382.625 147.033 377.563 147.033V151.033C382.801 151.033 388.038 150.688 393.274 149.999L392.752 146.034ZM374.481 99.8362V77.2708H370.481V99.8362H374.481ZM372.481 79.2708H379.189V75.2708H372.481V79.2708ZM381.189 77.2708C381.189 74.0962 381.051 70.7242 380.777 67.1561L376.789 67.4628C377.056 70.9421 377.189 74.211 377.189 77.2708H381.189ZM380.781 67.2326C380.638 63.5092 379.918 60.2778 378.517 57.6321L374.982 59.5037C376.021 61.4659 376.656 64.0622 376.784 67.3863L380.781 67.2326ZM378.75 58.5679V28.6839H374.75V58.5679H378.75ZM376.582 30.6769C389.046 31.7264 397.694 36.2065 402.953 43.8453L406.248 41.5769C400.123 32.6812 390.204 27.8099 376.918 26.691L376.582 30.6769ZM402.962 43.858C408.328 51.5235 411.139 62.5789 411.139 77.2708H415.139C415.139 62.1465 412.258 50.1621 406.239 41.5642L402.962 43.858ZM411.139 77.2708C411.139 81.0181 411.005 84.9039 410.737 88.9287L414.728 89.1947C415.002 85.0878 415.139 81.113 415.139 77.2708H411.139ZM410.737 88.9241C410.471 92.7797 410.007 96.2793 409.351 99.4283L413.267 100.244C413.967 96.8877 414.452 93.2043 414.728 89.1993L410.737 88.9241ZM411.309 97.8362H372.481V101.836H411.309V97.8362ZM468.563 65.2765H466.563V67.5713L468.836 67.2578L468.563 65.2765ZM468.563 33.3596L467.421 31.7178L466.563 32.3146V33.3596H468.563ZM492.145 29.4971H494.145V27.8343L492.51 27.5307L492.145 29.4971ZM492.145 63.6502V65.6502H494.145V63.6502H492.145ZM480.354 64.0568L480.221 62.0612L480.217 62.0615L480.354 64.0568ZM460.838 147V149H462.838V147H460.838ZM424.245 147H422.245V149H424.245V147ZM424.245 30.107V28.107H422.245V30.107H424.245ZM455.349 30.107L457.237 29.4452L456.767 28.107H455.349V30.107ZM460.838 45.7605H462.838V45.42L462.725 45.0987L460.838 45.7605ZM470.563 65.2765V33.3596H466.563V65.2765H470.563ZM469.705 35.0015C475.39 31.047 482.669 29.7714 491.78 31.4635L492.51 27.5307C482.647 25.699 474.205 26.9985 467.421 31.7178L469.705 35.0015ZM490.145 29.4971V63.6502H494.145V29.4971H490.145ZM492.145 61.6502C488.303 61.6502 484.328 61.7874 480.221 62.0612L480.487 66.0523C484.512 65.784 488.398 65.6502 492.145 65.6502V61.6502ZM480.217 62.0615C476.241 62.3357 472.265 62.747 468.29 63.2953L468.836 67.2578C472.722 66.7218 476.607 66.3199 480.492 66.052L480.217 62.0615ZM460.838 145H424.245V149H460.838V145ZM426.245 147V30.107H422.245V147H426.245ZM424.245 32.107H455.349V28.107H424.245V32.107ZM453.462 30.7688L458.951 46.4223L462.725 45.0987L457.237 29.4452L453.462 30.7688ZM458.838 45.7605V147H462.838V45.7605H458.838ZM2.03292 220.551H0.0329224V222.551H2.03292V220.551ZM2.03292 193.107V191.107H0.0329224V193.107H2.03292ZM17.2798 193.107V195.107H19.2798V193.107H17.2798ZM17.2798 167.492V165.492H15.2798V167.492H17.2798ZM53.8724 167.492H55.8724V165.492H53.8724V167.492ZM53.8724 193.107H51.8724V195.107H53.8724V193.107ZM76.0313 193.107H78.0313V191.107H76.0313V193.107ZM76.0313 220.551V222.551H78.0313V220.551H76.0313ZM17.2798 228.886V226.886H15.2798V228.886H17.2798ZM53.8724 228.886H55.8724V226.886H53.8724V228.886ZM56.7185 279.506L55.3576 280.972L55.3828 280.995L55.4087 281.018L56.7185 279.506ZM71.9654 281.946L72.1315 283.939L72.2133 283.932L72.2942 283.918L71.9654 281.946ZM76.0313 281.133H78.0313V278.571L75.5462 279.192L76.0313 281.133ZM76.0313 308.17L76.6637 310.068L78.0313 309.612V308.17H76.0313ZM65.6634 310.813L65.2992 308.847L65.2562 308.855L65.2137 308.864L65.6634 310.813ZM26.6313 304.105L25.3189 305.614L25.3364 305.629L25.3541 305.644L26.6313 304.105ZM4.03292 220.551V193.107H0.0329224V220.551H4.03292ZM2.03292 195.107H17.2798V191.107H2.03292V195.107ZM19.2798 193.107V167.492H15.2798V193.107H19.2798ZM17.2798 169.492H53.8724V165.492H17.2798V169.492ZM51.8724 167.492V193.107H55.8724V167.492H51.8724ZM53.8724 195.107H76.0313V191.107H53.8724V195.107ZM74.0313 193.107V220.551H78.0313V193.107H74.0313ZM76.0313 218.551H2.03292V222.551H76.0313V218.551ZM17.2798 230.886H53.8724V226.886H17.2798V230.886ZM51.8724 228.886V271.171H55.8724V228.886H51.8724ZM51.8724 271.171C51.8724 275.261 52.8942 278.684 55.3576 280.972L58.0794 278.041C56.748 276.804 55.8724 274.671 55.8724 271.171H51.8724ZM55.4087 281.018C57.9706 283.238 61.732 284.149 66.2733 284.149V280.149C62.1407 280.149 59.5323 279.298 58.0284 277.995L55.4087 281.018ZM66.2733 284.149C68.4804 284.149 70.4354 284.08 72.1315 283.939L71.7994 279.953C70.2428 280.082 68.4031 280.149 66.2733 280.149V284.149ZM72.2942 283.918C73.951 283.642 75.3626 283.361 76.5164 283.073L75.5462 279.192C74.5316 279.446 73.2326 279.707 71.6367 279.973L72.2942 283.918ZM74.0313 281.133V308.17H78.0313V281.133H74.0313ZM75.3988 306.273C72.2409 307.326 68.8752 308.184 65.2992 308.847L66.0276 312.78C69.7701 312.087 73.3163 311.184 76.6637 310.068L75.3988 306.273ZM65.2137 308.864C61.8392 309.643 58.3986 310.033 54.8889 310.033V314.033C58.6977 314.033 62.4401 313.61 66.1131 312.762L65.2137 308.864ZM54.8889 310.033C42.6598 310.033 33.7767 307.435 27.9084 302.565L25.3541 305.644C32.2255 311.345 42.1808 314.033 54.8889 314.033V310.033ZM27.9436 302.595C22.3666 297.746 19.2798 288.858 19.2798 275.237H15.2798C15.2798 289.264 18.4274 299.621 25.3189 305.614L27.9436 302.595ZM19.2798 275.237V228.886H15.2798V275.237H19.2798ZM139.368 311.83H137.368V313.932L139.468 313.827L139.368 311.83ZM139.368 281.946L138.259 280.282L137.368 280.875V281.946H139.368ZM139.368 221.568H137.368V222.69L138.325 223.274L139.368 221.568ZM139.368 191.684L139.451 189.686L137.368 189.599V191.684H139.368ZM174.131 206.931L172.514 208.109L172.523 208.12L174.131 206.931ZM174.131 296.583L175.739 297.772L175.747 297.76L174.131 296.583ZM129.203 282.149H131.203V281.027L130.246 280.442L129.203 282.149ZM129.203 311.83L129.103 313.827L131.203 313.932V311.83H129.203ZM94.4404 296.583L92.8238 297.76L92.832 297.771L94.4404 296.583ZM94.4404 206.931L92.832 205.742L94.4404 206.931ZM129.203 191.684H131.203V189.581L129.103 189.686L129.203 191.684ZM129.203 221.365L130.271 223.056L131.203 222.467V221.365H129.203ZM123.511 231.123L121.571 230.638L121.564 230.663L121.559 230.689L123.511 231.123ZM141.368 311.83V281.946H137.368V311.83H141.368ZM140.477 283.61C143.554 281.559 145.544 277.621 146.8 272.457C148.074 267.222 148.686 260.334 148.686 251.858H144.686C144.686 260.188 144.08 266.718 142.913 271.512C141.73 276.377 140.061 279.08 138.259 280.282L140.477 283.61ZM148.686 251.858C148.686 243.183 148.074 236.177 146.801 230.907C145.549 225.726 143.554 221.782 140.411 219.861L138.325 223.274C140.061 224.335 141.725 226.931 142.913 231.846C144.079 236.674 144.686 243.322 144.686 251.858H148.686ZM141.368 221.568V191.684H137.368V221.568H141.368ZM139.285 193.682C155.188 194.345 166.087 199.286 172.514 208.109L175.747 205.753C168.351 195.602 156.075 190.378 139.451 189.686L139.285 193.682ZM172.523 208.12C179.05 216.951 182.499 231.33 182.499 251.655H186.499C186.499 231.051 183.036 215.614 175.739 205.742L172.523 208.12ZM182.499 251.655C182.499 271.977 179.052 286.432 172.514 295.405L175.747 297.76C183.034 287.759 186.499 272.263 186.499 251.655H182.499ZM172.523 295.394C166.093 304.092 155.184 309.036 139.268 309.832L139.468 313.827C156.079 312.997 168.345 307.776 175.739 297.771L172.523 295.394ZM127.203 282.149V311.83H131.203V282.149H127.203ZM129.303 309.832C113.387 309.036 102.478 304.092 96.0487 295.394L92.832 297.771C100.227 307.776 112.493 312.997 129.103 313.827L129.303 309.832ZM96.0568 295.405C89.5197 286.432 86.0724 271.977 86.0724 251.655H82.0724C82.0724 272.263 85.5372 287.759 92.8239 297.76L96.0568 295.405ZM86.0724 251.655C86.0724 231.33 89.5212 216.951 96.0487 208.12L92.832 205.742C85.5356 215.614 82.0724 231.051 82.0724 251.655H86.0724ZM96.0487 208.12C102.478 199.421 113.387 194.477 129.303 193.681L129.103 189.686C112.493 190.517 100.227 195.737 92.832 205.742L96.0487 208.12ZM127.203 191.684V221.365H131.203V191.684H127.203ZM128.135 219.674C124.916 221.707 122.839 225.566 121.571 230.638L125.451 231.608C126.623 226.921 128.34 224.275 130.271 223.056L128.135 219.674ZM121.559 230.689C120.427 235.78 119.885 242.863 119.885 251.858H123.885C123.885 242.964 124.426 236.223 125.464 231.556L121.559 230.689ZM119.885 251.858C119.885 260.534 120.497 267.54 121.77 272.81C123.022 277.991 125.017 281.935 128.16 283.856L130.246 280.442C128.51 279.382 126.846 276.786 125.659 271.87C124.492 267.043 123.885 260.395 123.885 251.858H119.885ZM247.963 311.83H245.963V313.932L248.062 313.827L247.963 311.83ZM247.963 281.946L246.853 280.282L245.963 280.875V281.946H247.963ZM247.963 221.568H245.963V222.69L246.92 223.274L247.963 221.568ZM247.963 191.684L248.046 189.686L245.963 189.599V191.684H247.963ZM282.725 206.931L281.109 208.109L281.117 208.12L282.725 206.931ZM282.725 296.583L284.334 297.772L284.342 297.76L282.725 296.583ZM237.798 282.149H239.798V281.027L238.841 280.442L237.798 282.149ZM237.798 311.83L237.698 313.827L239.798 313.932V311.83H237.798ZM203.035 296.583L201.418 297.76L201.427 297.771L203.035 296.583ZM203.035 206.931L201.427 205.742L203.035 206.931ZM237.798 191.684H239.798V189.581L237.698 189.686L237.798 191.684ZM237.798 221.365L238.866 223.056L239.798 222.467V221.365H237.798ZM232.106 231.123L230.165 230.638L230.159 230.663L230.153 230.689L232.106 231.123ZM249.963 311.83V281.946H245.963V311.83H249.963ZM249.072 283.61C252.149 281.559 254.139 277.621 255.395 272.457C256.668 267.222 257.281 260.334 257.281 251.858H253.281C253.281 260.188 252.674 266.718 251.508 271.512C250.325 276.377 248.655 279.08 246.853 280.282L249.072 283.61ZM257.281 251.858C257.281 243.183 256.669 236.177 255.395 230.907C254.144 225.726 252.149 221.782 249.005 219.861L246.92 223.274C248.655 224.335 250.32 226.931 251.507 231.846C252.674 236.674 253.281 243.322 253.281 251.858H257.281ZM249.963 221.568V191.684H245.963V221.568H249.963ZM247.879 193.682C263.783 194.345 274.681 199.286 281.109 208.109L284.342 205.753C276.946 195.602 264.669 190.378 248.046 189.686L247.879 193.682ZM281.117 208.12C287.645 216.951 291.093 231.33 291.093 251.655H295.093C295.093 231.051 291.63 215.614 284.334 205.742L281.117 208.12ZM291.093 251.655C291.093 271.977 287.646 286.432 281.109 295.405L284.342 297.76C291.629 287.759 295.093 272.263 295.093 251.655H291.093ZM281.117 295.394C274.688 304.092 263.779 309.036 247.863 309.832L248.062 313.827C264.673 312.997 276.939 307.776 284.334 297.771L281.117 295.394ZM235.798 282.149V311.83H239.798V282.149H235.798ZM237.898 309.832C221.982 309.036 211.072 304.092 204.643 295.394L201.427 297.771C208.821 307.776 221.087 312.997 237.698 313.827L237.898 309.832ZM204.651 295.405C198.114 286.432 194.667 271.977 194.667 251.655H190.667C190.667 272.263 194.132 287.759 201.418 297.76L204.651 295.405ZM194.667 251.655C194.667 231.33 198.116 216.951 204.643 208.12L201.427 205.742C194.13 215.614 190.667 231.051 190.667 251.655H194.667ZM204.643 208.12C211.072 199.421 221.982 194.477 237.898 193.681L237.698 189.686C221.087 190.517 208.821 195.737 201.427 205.742L204.643 208.12ZM235.798 191.684V221.365H239.798V191.684H235.798ZM236.73 219.674C233.511 221.707 231.433 225.566 230.165 230.638L234.046 231.608C235.218 226.921 236.935 224.275 238.866 223.056L236.73 219.674ZM230.153 230.689C229.022 235.78 228.479 242.863 228.479 251.858H232.479C232.479 242.964 233.021 236.223 234.058 231.556L230.153 230.689ZM228.479 251.858C228.479 260.534 229.092 267.54 230.365 272.81C231.617 277.991 233.612 281.935 236.755 283.856L238.841 280.442C237.105 279.382 235.441 276.786 234.253 271.87C233.087 267.043 232.479 260.395 232.479 251.858H228.479ZM44.7243 473V475H46.7243V473H44.7243ZM8.13169 473H6.13169V475H8.13169V473ZM8.13169 324.393L7.86736 322.411L6.13169 322.642V324.393H8.13169ZM44.7243 319.514H46.7243V317.23L44.46 317.532L44.7243 319.514ZM44.7243 471H8.13169V475H44.7243V471ZM10.1317 473V324.393H6.13169V473H10.1317ZM8.39602 326.376L44.9886 321.497L44.46 317.532L7.86736 322.411L8.39602 326.376ZM42.7243 319.514V473H46.7243V319.514H42.7243ZM105.664 385.178L104.7 386.93L104.735 386.949L104.77 386.967L105.664 385.178ZM80.4561 384.365L80.8483 386.326L80.4561 384.365ZM66.2256 388.43H64.2256V391.307L66.922 390.305L66.2256 388.43ZM66.2256 359.97L65.7918 358.017L64.2256 358.365V359.97H66.2256ZM85.1318 356.31L85.4606 358.283L85.4769 358.28L85.4931 358.277L85.1318 356.31ZM125.587 357.327L125.005 359.24L125.024 359.246L125.043 359.251L125.587 357.327ZM140.631 367.085L139.069 368.334L140.631 367.085ZM146.323 473V475H148.323V473H146.323ZM114.609 473L112.683 473.538L113.091 475H114.609V473ZM109.73 455.517H107.73V455.791L107.804 456.054L109.73 455.517ZM99.5655 447.792H101.566V446.35L100.198 445.894L99.5655 447.792ZM99.5655 472.797L100.345 474.639L101.566 474.122V472.797H99.5655ZM72.9343 470.967L71.9053 472.682L71.9235 472.693L71.942 472.704L72.9343 470.967ZM61.3466 458.77L59.6046 459.752L61.3466 458.77ZM68.6651 413.639L69.8739 415.232L69.878 415.229L68.6651 413.639ZM99.5655 404.287H101.566V402.266L99.544 402.287L99.5655 404.287ZM99.5655 425.836L100.367 427.669L101.566 427.144V425.836H99.5655ZM94.2799 429.902L92.6947 428.683L92.6873 428.692L92.6799 428.702L94.2799 429.902ZM94.4832 443.929L92.8191 445.039L92.837 445.065L92.8558 445.092L94.4832 443.929ZM111.73 393.106C111.73 388.684 110.156 385.187 106.559 383.389L104.77 386.967C106.594 387.879 107.73 389.668 107.73 393.106H111.73ZM106.628 383.425C103.535 381.724 99.7193 380.942 95.2964 380.942V384.942C99.2762 384.942 102.372 385.65 104.7 386.93L106.628 383.425ZM95.2964 380.942C90.0231 380.942 84.9445 381.427 80.0638 382.403L80.8483 386.326C85.4546 385.404 90.2696 384.942 95.2964 384.942V380.942ZM80.0638 382.403C75.2122 383.374 70.3671 384.759 65.5292 386.556L66.922 390.305C71.5711 388.578 76.2129 387.253 80.8483 386.326L80.0638 382.403ZM68.2256 388.43V359.97H64.2256V388.43H68.2256ZM66.6595 361.922C72.7215 360.575 78.9885 359.362 85.4606 358.283L84.803 354.337C78.2644 355.427 71.9272 356.654 65.7918 358.017L66.6595 361.922ZM85.4931 358.277C92.0168 357.079 98.5368 356.481 105.054 356.481V352.481C98.2904 352.481 91.5286 353.102 84.7705 354.343L85.4931 358.277ZM105.054 356.481C112.339 356.481 118.984 357.408 125.005 359.24L126.169 355.413C119.721 353.451 112.678 352.481 105.054 352.481V356.481ZM125.043 359.251C130.904 360.908 135.552 363.939 139.069 368.334L142.192 365.835C138.119 360.744 132.738 357.269 126.131 355.402L125.043 359.251ZM139.069 368.334C142.477 372.594 144.323 378.86 144.323 387.414H148.323C148.323 378.349 146.374 371.062 142.192 365.835L139.069 368.334ZM144.323 387.414V473H148.323V387.414H144.323ZM146.323 471H114.609V475H146.323V471ZM116.536 472.462L111.657 454.979L107.804 456.054L112.683 473.538L116.536 472.462ZM111.73 455.517V393.106H107.73V455.517H111.73ZM97.5655 447.792V472.797H101.566V447.792H97.5655ZM98.7863 470.955C95.5243 472.335 91.9963 473.033 88.1812 473.033V477.033C92.4977 477.033 96.5593 476.24 100.345 474.639L98.7863 470.955ZM88.1812 473.033C83.1109 473.033 78.3703 471.77 73.9265 469.231L71.942 472.704C76.9852 475.585 82.4092 477.033 88.1812 477.033V473.033ZM73.9633 469.252C69.5451 466.601 65.9169 462.801 63.0886 457.787L59.6046 459.752C62.7395 465.309 66.8365 469.641 71.9053 472.682L73.9633 469.252ZM63.0886 457.787C60.3107 452.862 58.8742 446.848 58.8742 439.66H54.8742C54.8742 447.38 56.4193 454.105 59.6046 459.752L63.0886 457.787ZM58.8742 439.66C58.8742 428.792 62.5928 420.756 69.8739 415.232L67.4564 412.045C59.0162 418.448 54.8742 427.759 54.8742 439.66H58.8742ZM69.878 415.229C77.4529 409.451 87.3032 406.419 99.587 406.287L99.544 402.287C86.6197 402.426 75.8696 405.628 67.4522 412.048L69.878 415.229ZM97.5655 404.287V425.836H101.566V404.287H97.5655ZM98.7639 424.004C96.3074 425.079 94.2687 426.636 92.6947 428.683L95.8652 431.121C97.0017 429.644 98.4867 428.491 100.367 427.669L98.7639 424.004ZM92.6799 428.702C91.1383 430.758 90.4503 433.313 90.4503 436.204H94.4503C94.4503 433.945 94.982 432.299 95.8799 431.102L92.6799 428.702ZM90.4503 436.204C90.4503 439.608 91.1916 442.597 92.8191 445.039L96.1473 442.82C95.0643 441.195 94.4503 439.035 94.4503 436.204H90.4503ZM92.8558 445.092C94.4339 447.301 96.4634 448.866 98.9331 449.689L100.198 445.894C98.6018 445.362 97.2431 444.352 96.1107 442.767L92.8558 445.092ZM155.495 383.551H153.495V385.551H155.495V383.551ZM155.495 356.107V354.107H153.495V356.107H155.495ZM170.742 356.107V358.107H172.742V356.107H170.742ZM170.742 330.492V328.492H168.742V330.492H170.742ZM207.334 330.492H209.334V328.492H207.334V330.492ZM207.334 356.107H205.334V358.107H207.334V356.107ZM229.493 356.107H231.493V354.107H229.493V356.107ZM229.493 383.551V385.551H231.493V383.551H229.493ZM170.742 391.886V389.886H168.742V391.886H170.742ZM207.334 391.886H209.334V389.886H207.334V391.886ZM210.18 442.506L208.819 443.972L208.845 443.995L208.87 444.018L210.18 442.506ZM225.427 444.946L225.593 446.939L225.675 446.932L225.756 446.918L225.427 444.946ZM229.493 444.133H231.493V441.571L229.008 442.192L229.493 444.133ZM229.493 471.17L230.126 473.068L231.493 472.612V471.17H229.493ZM219.125 473.813L218.761 471.847L218.718 471.855L218.675 471.864L219.125 473.813ZM180.093 467.105L178.781 468.614L178.798 468.629L178.816 468.644L180.093 467.105ZM157.495 383.551V356.107H153.495V383.551H157.495ZM155.495 358.107H170.742V354.107H155.495V358.107ZM172.742 356.107V330.492H168.742V356.107H172.742ZM170.742 332.492H207.334V328.492H170.742V332.492ZM205.334 330.492V356.107H209.334V330.492H205.334ZM207.334 358.107H229.493V354.107H207.334V358.107ZM227.493 356.107V383.551H231.493V356.107H227.493ZM229.493 381.551H155.495V385.551H229.493V381.551ZM170.742 393.886H207.334V389.886H170.742V393.886ZM205.334 391.886V434.171H209.334V391.886H205.334ZM205.334 434.171C205.334 438.261 206.356 441.684 208.819 443.972L211.541 441.041C210.21 439.804 209.334 437.671 209.334 434.171H205.334ZM208.87 444.018C211.432 446.238 215.194 447.149 219.735 447.149V443.149C215.603 443.149 212.994 442.298 211.49 440.995L208.87 444.018ZM219.735 447.149C221.942 447.149 223.897 447.08 225.593 446.939L225.261 442.953C223.705 443.082 221.865 443.149 219.735 443.149V447.149ZM225.756 446.918C227.413 446.642 228.824 446.361 229.978 446.073L229.008 442.192C227.993 442.446 226.694 442.707 225.098 442.973L225.756 446.918ZM227.493 444.133V471.17H231.493V444.133H227.493ZM228.861 469.273C225.703 470.326 222.337 471.184 218.761 471.847L219.489 475.78C223.232 475.087 226.778 474.184 230.126 473.068L228.861 469.273ZM218.675 471.864C215.301 472.643 211.86 473.033 208.351 473.033V477.033C212.16 477.033 215.902 476.61 219.575 475.762L218.675 471.864ZM208.351 473.033C196.122 473.033 187.238 470.435 181.37 465.565L178.816 468.644C185.687 474.345 195.643 477.033 208.351 477.033V473.033ZM181.405 465.595C175.828 460.746 172.742 451.858 172.742 438.237H168.742C168.742 452.264 171.889 462.621 178.781 468.614L181.405 465.595ZM172.742 438.237V391.886H168.742V438.237H172.742ZM269.248 472.39L268.725 474.321L268.735 474.323L269.248 472.39ZM252.375 463.039L251.003 464.494L252.375 463.039ZM241.397 444.539L239.496 445.162L241.397 444.539ZM247.699 370.947L249.356 372.067L249.363 372.057L247.699 370.947ZM280.429 354.481H282.429V352.37L280.321 352.484L280.429 354.481ZM280.429 384.365L282.108 385.451L282.429 384.955V384.365H280.429ZM277.989 434.171L279.912 433.622L277.989 434.171ZM285.715 443.929L284.872 445.743L284.884 445.749L284.896 445.754L285.715 443.929ZM311.939 445.759L311.623 443.784L311.61 443.786L311.939 445.759ZM321.697 443.929H323.697V441.448L321.272 441.975L321.697 443.929ZM321.697 471.577L322.089 473.538L323.697 473.217V471.577H321.697ZM306.654 474.016L306.399 472.033L306.393 472.034L306.654 474.016ZM286.121 425.836H284.121V427.836H286.121V425.836ZM286.121 403.271V401.271H284.121V403.271H286.121ZM292.83 403.271V405.271H294.83V403.271H292.83ZM292.423 393.309L290.425 393.386L290.426 393.425L290.429 393.463L292.423 393.309ZM290.39 384.568H288.39V385.065L288.623 385.504L290.39 384.568ZM290.39 354.684L290.558 352.691L288.39 352.508V354.684H290.39ZM318.241 368.711L316.594 369.845L316.598 369.852L316.603 369.858L318.241 368.711ZM326.373 415.062L328.368 415.199L328.369 415.195L326.373 415.062ZM324.95 425.836V427.836H326.576L326.908 426.244L324.95 425.836ZM291.203 473.033C283.353 473.033 276.21 472.168 269.761 470.457L268.735 474.323C275.568 476.136 283.062 477.033 291.203 477.033V473.033ZM269.771 470.46C263.572 468.781 258.242 465.822 253.747 461.583L251.003 464.494C255.994 469.2 261.913 472.476 268.725 474.321L269.771 470.46ZM253.747 461.583C249.303 457.394 245.796 451.543 243.297 443.916L239.496 445.162C242.148 453.256 245.959 459.739 251.003 464.494L253.747 461.583ZM243.297 443.916C240.811 436.328 239.534 426.528 239.534 414.452H235.534C235.534 426.77 236.832 437.029 239.496 445.162L243.297 443.916ZM239.534 414.452C239.534 395.668 242.897 381.627 249.356 372.067L246.042 369.828C238.948 380.326 235.534 395.288 235.534 414.452H239.534ZM249.363 372.057C255.708 362.54 265.959 357.266 280.537 356.478L280.321 352.484C264.811 353.322 253.243 359.026 246.035 369.838L249.363 372.057ZM278.429 354.481V384.365H282.429V354.481H278.429ZM278.75 383.278C277.026 385.941 275.856 389.888 275.097 394.89C274.331 399.939 273.956 406.265 273.956 413.842H277.956C277.956 406.375 278.327 400.267 279.052 395.49C279.784 390.666 280.85 387.396 282.108 385.451L278.75 383.278ZM273.956 413.842C273.956 422.716 274.635 429.711 276.066 434.721L279.912 433.622C278.633 429.145 277.956 422.587 277.956 413.842H273.956ZM276.066 434.721C277.55 439.912 280.455 443.692 284.872 445.743L286.557 442.115C283.385 440.642 281.14 437.917 279.912 433.622L276.066 434.721ZM284.896 445.754C289.2 447.684 295.083 448.572 302.384 448.572V444.572C295.319 444.572 290.089 443.699 286.533 442.104L284.896 445.754ZM302.384 448.572C305.618 448.572 308.913 448.291 312.268 447.732L311.61 443.786C308.46 444.311 305.385 444.572 302.384 444.572V448.572ZM312.255 447.734C315.677 447.186 318.966 446.57 322.122 445.884L321.272 441.975C318.194 442.644 314.978 443.247 311.623 443.784L312.255 447.734ZM319.697 443.929V471.577H323.697V443.929H319.697ZM321.305 469.616C316.612 470.554 311.643 471.36 306.399 472.033L306.908 476C312.235 475.317 317.296 474.497 322.089 473.538L321.305 469.616ZM306.393 472.034C301.328 472.7 296.265 473.033 291.203 473.033V477.033C296.441 477.033 301.679 476.688 306.915 475.999L306.393 472.034ZM288.121 425.836V403.271H284.121V425.836H288.121ZM286.121 405.271H292.83V401.271H286.121V405.271ZM294.83 403.271C294.83 400.096 294.692 396.724 294.417 393.156L290.429 393.463C290.697 396.942 290.83 400.211 290.83 403.271H294.83ZM294.422 393.233C294.278 389.509 293.559 386.278 292.158 383.632L288.623 385.504C289.661 387.466 290.297 390.062 290.425 393.386L294.422 393.233ZM292.39 384.568V354.684H288.39V384.568H292.39ZM290.222 356.677C302.686 357.726 311.334 362.207 316.594 369.845L319.889 367.577C313.764 358.681 303.845 353.81 290.558 352.691L290.222 356.677ZM316.603 369.858C321.969 377.523 324.78 388.579 324.78 403.271H328.78C328.78 388.146 325.898 376.162 319.88 367.564L316.603 369.858ZM324.78 403.271C324.78 407.018 324.646 410.904 324.377 414.929L328.369 415.195C328.642 411.088 328.78 407.113 328.78 403.271H324.78ZM324.378 414.924C324.112 418.78 323.648 422.279 322.992 425.428L326.908 426.244C327.607 422.888 328.092 419.204 328.368 415.199L324.378 414.924ZM324.95 423.836H286.121V427.836H324.95V423.836ZM346.424 427.463L344.43 427.618L344.574 429.463H346.424V427.463ZM340.325 348.992H338.325V349.069L338.331 349.147L340.325 348.992ZM340.325 314.635V312.635H338.325V314.635H340.325ZM380.171 314.635H382.171V312.635H380.171V314.635ZM380.171 348.992L382.165 349.147L382.171 349.069V348.992H380.171ZM374.072 427.463V429.463H375.923L376.066 427.618L374.072 427.463ZM341.952 473H339.952V475H341.952V473ZM341.952 445.352V443.352H339.952V445.352H341.952ZM378.748 445.352H380.748V443.352H378.748V445.352ZM378.748 473V475H380.748V473H378.748ZM348.418 427.308L342.319 348.837L338.331 349.147L344.43 427.618L348.418 427.308ZM342.325 348.992V314.635H338.325V348.992H342.325ZM340.325 316.635H380.171V312.635H340.325V316.635ZM378.171 314.635V348.992H382.171V314.635H378.171ZM378.177 348.837L372.078 427.308L376.066 427.618L382.165 349.147L378.177 348.837ZM374.072 425.463H346.424V429.463H374.072V425.463ZM343.952 473V445.352H339.952V473H343.952ZM341.952 447.352H378.748V443.352H341.952V447.352ZM376.748 445.352V473H380.748V445.352H376.748ZM378.748 471H341.952V475H378.748V471Z" fill="white"/>
</svg>
