<svg width="48" height="48" viewBox="0 0 48 48" fill="none" xmlns="http://www.w3.org/2000/svg">
<path fill-rule="evenodd" clip-rule="evenodd" d="M34.3927 0C41.7752 0 47.76 5.98841 47.76 13.3673V34.3927C47.76 41.7752 41.7716 47.76 34.3927 47.76H13.3673C5.98476 47.76 0 41.7716 0 34.3927V13.3673C0 5.98476 5.98841 0 13.3673 0L34.3927 0ZM23.88 11.4624C17.0219 11.4624 11.4624 17.0219 11.4624 23.88C11.4624 30.738 17.0219 36.2976 23.88 36.2976C30.738 36.2976 36.2976 30.738 36.2976 23.88C36.2976 17.0219 30.738 11.4624 23.88 11.4624ZM23.88 15.2832C28.6279 15.2832 32.4768 19.1321 32.4768 23.88C32.4768 28.6279 28.6279 32.4768 23.88 32.4768C19.1321 32.4768 15.2832 28.6279 15.2832 23.88C15.2832 19.1321 19.1321 15.2832 23.88 15.2832ZM37.7304 6.6864C35.884 6.6864 34.3872 8.1832 34.3872 10.0296C34.3872 11.876 35.884 13.3728 37.7304 13.3728C39.5768 13.3728 41.0736 11.876 41.0736 10.0296C41.0736 8.1832 39.5768 6.6864 37.7304 6.6864Z" fill="white"/>
</svg>
