<svg width="32" height="32" viewBox="0 0 32 32" fill="none" xmlns="http://www.w3.org/2000/svg">
<g clip-path="url(#clip0_75_84)">
<path d="M20.852 17.0167C22.7627 15.5547 24 13.2581 24 10.6667C24 6.24875 20.418 2.66675 16 2.66675C11.582 2.66675 8.00001 6.24875 8.00001 10.6667C8.00001 13.2581 9.23734 15.5547 11.148 17.0167C6.56001 19.0207 3.33334 23.7767 3.33334 29.3334H28.6667C28.6667 23.7767 25.44 19.0207 20.852 17.0167ZM10.6667 10.6667C10.6667 7.72608 13.0593 5.33341 16 5.33341C18.9407 5.33341 21.3333 7.72608 21.3333 10.6667C21.3333 13.6074 18.9407 16.0001 16 16.0001C13.0593 16.0001 10.6667 13.6074 10.6667 10.6667ZM16 18.6667C20.6513 18.6667 24.5707 22.0714 25.6833 26.6667H6.31668C7.42934 22.0714 11.3487 18.6667 16 18.6667Z" fill="white"/>
</g>
<defs>
<clipPath id="clip0_75_84">
<rect width="32" height="32" fill="white"/>
</clipPath>
</defs>
</svg>
