<svg width="48" height="39" viewBox="0 0 48 39" fill="none" xmlns="http://www.w3.org/2000/svg">
<path fill-rule="evenodd" clip-rule="evenodd" d="M15.0196 38.8078C33.0423 38.8078 42.8999 23.8761 42.8999 10.9274C42.8999 10.5033 42.8999 10.0811 42.8713 9.66083C44.789 8.27371 46.4444 6.5562 47.76 4.58872C45.9716 5.38116 44.0745 5.90084 42.132 6.13041C44.1775 4.90581 45.7085 2.97973 46.4399 0.71061C44.5164 1.85199 42.4121 2.65637 40.2177 3.08906C37.1804 -0.140676 32.354 -0.931164 28.445 1.16085C24.536 3.25287 22.5165 7.70712 23.5189 12.0259C15.6402 11.6309 8.29969 7.90961 3.3241 1.78808C0.723321 6.26537 2.05175 11.9932 6.35781 14.8686C4.79843 14.8224 3.27305 14.4017 1.9104 13.6421V13.7663C1.91168 18.4307 5.19963 22.4482 9.7717 23.3718C8.32909 23.7652 6.81551 23.8227 5.34721 23.5399C6.6309 27.5315 10.3096 30.266 14.5018 30.3447C11.0321 33.0717 6.74574 34.5521 2.3326 34.5476C1.55297 34.5461 0.774102 34.4989 0 34.4062C4.4811 37.2819 9.69511 38.8073 15.0196 38.8002" fill="white"/>
</svg>
